<svg width="16" height="16" viewBox="0 0 16 16" fill="none" xmlns="http://www.w3.org/2000/svg">
<path fill-rule="evenodd" clip-rule="evenodd" d="M14.1712 6.97146H9.02836V1.8286C9.02836 1.26289 8.56554 0.800049 7.99983 0.800049C7.43411 0.800049 6.9713 1.26289 6.9713 1.8286V6.97146H1.82844C1.26272 6.97146 0.799805 7.43433 0.799805 8.00004C0.799805 8.56576 1.26272 9.02862 1.82844 9.02862H6.9713V14.1715C6.9713 14.7372 7.43411 15.2 7.99983 15.2C8.56554 15.2 9.02836 14.7372 9.02836 14.1715V9.02862H14.1712C14.7369 9.02862 15.1998 8.56576 15.1998 8.00004C15.1998 7.43433 14.7369 6.97146 14.1712 6.97146Z" fill="#F7F7FA"/>
</svg>
