<svg width="20" height="20" viewBox="0 0 20 20" fill="none" xmlns="http://www.w3.org/2000/svg">
<circle cx="10" cy="10" r="9.25" fill="white" stroke="#7A91A9" stroke-width="1.5"/>
<path d="M4.4825 8.23913C4.47904 8.376 4.5931 8.43 4.71715 8.52487L8.82104 12.0922C8.97696 12.1676 9.08833 12.1376 9.09102 12L9.09102 10.125C10.083 9.9645 11.585 9.87225 13.163 10.7895C15.5733 12.1909 15.7131 15 15.7131 15L15.7722 14.7112C15.7722 14.7112 16.7969 11.3242 14.5325 8.6895C12.6354 6.48187 10.1548 6.25387 9.09064 6.375L9.09064 4.875C9.09678 4.67362 9.02458 4.57987 8.84485 4.62337L4.75594 7.95038C4.62767 8.05013 4.4848 8.103 4.4825 8.23913Z" fill="#7A91A9"/>
</svg>
