<svg width="16" height="16" viewBox="0 0 16 16" fill="none" xmlns="http://www.w3.org/2000/svg">
<rect width="16" height="16" fill="#F2F2F2"/>
<g id="&#208;&#188;&#208;&#181;&#208;&#189;&#208;&#181;&#208;&#180;&#208;&#182;&#208;&#181;&#209;&#128;_&#209;&#129;&#208;&#190;&#208;&#183;&#208;&#180;&#208;&#176;&#208;&#189;&#208;&#184;&#208;&#181; &#208;&#189;&#208;&#190;&#208;&#178;&#208;&#190;&#208;&#185; &#208;&#183;&#208;&#176;&#209;&#143;&#208;&#178;&#208;&#186;&#208;&#184;_&#208;&#190;&#209;&#130;&#208;&#178;&#208;&#181;&#209;&#130;&#209;&#129;&#209;&#130;&#208;&#178;&#208;&#181;&#208;&#189;&#208;&#189;&#209;&#139;&#208;&#181;">
<rect width="1440" height="1067" transform="translate(-722 -404)" fill="white"/>
<rect id="Rectangle 1913" x="-579.5" y="-91.5" width="802" height="319" rx="29.5" fill="#F6FBFF" stroke="#E2E4E5"/>
<g id="x-token-fill-16" clip-path="url(#clip0_3600_678)">
<path id="Vector" d="M13.65 2.3499C10.55 -0.750098 5.45002 -0.750098 2.35002 2.3499C-0.749976 5.4499 -0.749976 10.5499 2.35002 13.6499C5.45002 16.7499 10.55 16.7499 13.65 13.6499C16.8 10.5499 16.8 5.4499 13.65 2.3499ZM11.25 10.3499C11.5 10.5999 11.5 10.9999 11.25 11.2499C11.15 11.3499 11 11.4499 10.8 11.4499C10.6 11.4499 10.5 11.3999 10.35 11.2499L8.00002 8.8999L5.65002 11.2499C5.55002 11.3499 5.40002 11.4499 5.20002 11.4499C5.00002 11.4499 4.90002 11.3999 4.75002 11.2499C4.50002 10.9999 4.50002 10.5999 4.75002 10.3499L7.10002 7.9999L4.75002 5.6499C4.50002 5.3999 4.50002 4.9999 4.75002 4.7499C4.85002 4.6499 5.00002 4.5499 5.20002 4.5499C5.40002 4.5499 5.50002 4.5999 5.65002 4.7499L8.00002 7.0999L10.35 4.7499C10.45 4.6499 10.6 4.5499 10.8 4.5499C11 4.5499 11.1 4.5999 11.25 4.7499C11.5 4.9999 11.5 5.3999 11.25 5.6499L8.90002 7.9999L11.25 10.3499Z" fill="#7A91A9"/>
</g>
</g>
<defs>
<clipPath id="clip0_3600_678">
<rect width="16" height="16" fill="white"/>
</clipPath>
</defs>
</svg>
