<svg width="23" height="22" viewBox="0 0 23 22" fill="none" xmlns="http://www.w3.org/2000/svg">
<path d="M21.6 0.5H14.25C13.05 0.5 11.925 1.025 11.25 2C10.575 1.025 9.45 0.5 8.25 0.5H0.9C0.45 0.5 0 0.95 0 1.4V19.025C0 19.55 0.45 20 0.9 20H8.25C9.075 20 9.825 20.45 10.2 21.125C10.35 21.35 10.575 21.5 10.875 21.5H11.7C12 21.5 12.225 21.35 12.375 21.125C12.75 20.45 13.5 20 14.325 20H21.675C22.2 20 22.575 19.55 22.575 19.1V1.4C22.5 0.95 22.05 0.5 21.6 0.5ZM8.25 18.5H1.5V2H8.25C9.525 2 10.5 2.975 10.5 4.25V19.25C9.825 18.8 9.075 18.5 8.25 18.5ZM21 18.5H14.25C13.425 18.5 12.675 18.8 12 19.25V4.25C12 2.975 12.975 2 14.25 2H21V18.5ZM3 5H9V6.5H3V5ZM3 9.5H9V11H3V9.5ZM3 14H9V15.5H3V14ZM13.5 5H19.5V6.5H13.5V5ZM13.5 9.5H19.5V11H13.5V9.5ZM13.5 14H19.5V15.5H13.5V14Z" fill="white"/>
</svg>
