<svg width="24" height="24" viewBox="0 0 24 24" fill="none" xmlns="http://www.w3.org/2000/svg">
<path d="M3.75 23.25C3.675 23.25 3.525 23.25 3.45 23.175C3.15 23.025 3 22.8 3 22.5V17.175C1.125 15.45 0 13.05 0 10.5C0 5.55 4.05 1.5 9 1.5H15C19.95 1.5 24 5.55 24 10.5C24 15.45 19.95 19.5 15 19.5H9C8.925 19.5 8.775 19.5 8.7 19.5L4.275 23.1C4.05 23.175 3.9 23.25 3.75 23.25ZM9 3C4.875 3 1.5 6.375 1.5 10.5C1.5 12.75 2.475 14.85 4.2 16.275C4.425 16.425 4.5 16.65 4.5 16.875V20.925L7.95 18.15C8.1 18 8.25 18 8.475 18H8.55C8.7 18 8.85 18 9 18H15C19.125 18 22.5 14.625 22.5 10.5C22.5 6.375 19.125 3 15 3H9Z" fill="#7A91A9"/>
</svg>
