<svg width="20" height="20" viewBox="0 0 20 20" fill="none" xmlns="http://www.w3.org/2000/svg">
<path d="M1.6665 15V5.83332C1.6665 4.91285 2.4127 4.16666 3.33317 4.16666H16.6665C17.587 4.16666 18.3332 4.91285 18.3332 5.83332V15C18.3332 15.9205 17.587 16.6667 16.6665 16.6667H3.33317C2.4127 16.6667 1.6665 15.9205 1.6665 15Z" fill="#7A91A9"/>
<path fill-rule="evenodd" clip-rule="evenodd" d="M3.33317 4.79166C2.75787 4.79166 2.2915 5.25803 2.2915 5.83332V15C2.2915 15.5753 2.75787 16.0417 3.33317 16.0417H16.6665C17.2418 16.0417 17.7082 15.5753 17.7082 15V5.83332C17.7082 5.25803 17.2418 4.79166 16.6665 4.79166H3.33317ZM1.0415 5.83332C1.0415 4.56767 2.06752 3.54166 3.33317 3.54166H16.6665C17.9322 3.54166 18.9582 4.56767 18.9582 5.83332V15C18.9582 16.2656 17.9322 17.2917 16.6665 17.2917H3.33317C2.06752 17.2917 1.0415 16.2656 1.0415 15V5.83332Z" fill="#7A91A9"/>
<path fill-rule="evenodd" clip-rule="evenodd" d="M1.92854 7.24617C2.06873 6.93074 2.43808 6.78868 2.7535 6.92887L9.91506 10.1118C9.96892 10.1357 10.0304 10.1357 10.0843 10.1118L17.2458 6.92887C17.5613 6.78868 17.9306 6.93074 18.0708 7.24617C18.211 7.56159 18.0689 7.93095 17.7535 8.07114L10.592 11.254C10.2149 11.4216 9.78446 11.4216 9.40738 11.254L2.24583 8.07114C1.9304 7.93095 1.78835 7.56159 1.92854 7.24617Z" fill="white"/>
<path fill-rule="evenodd" clip-rule="evenodd" d="M7.48983 10.7685C7.42277 10.7372 7.34413 10.7438 7.28326 10.7859L2.85499 13.8474C2.57107 14.0437 2.18177 13.9727 1.98547 13.6887C1.78917 13.4048 1.86021 13.0155 2.14414 12.8192L6.5724 9.75771C6.99854 9.4631 7.54898 9.41667 8.01844 9.63575L9.91147 10.5192C9.96731 10.5452 10.0318 10.5452 10.0877 10.5192L11.9807 9.63575C12.4502 9.41667 13.0006 9.4631 13.4267 9.75771L17.855 12.8192C18.1389 13.0155 18.21 13.4048 18.0137 13.6887C17.8174 13.9727 17.4281 14.0437 17.1441 13.8474L12.7159 10.7859C12.655 10.7438 12.5764 10.7372 12.5093 10.7685L10.6163 11.6519C10.2254 11.8343 9.77376 11.8343 9.38286 11.6519L7.48983 10.7685Z" fill="white"/>
</svg>
