<svg width="22" height="21" viewBox="0 0 22 21" fill="none" xmlns="http://www.w3.org/2000/svg">
<path fill-rule="evenodd" clip-rule="evenodd" d="M14.75 10C15.1642 10 15.5 10.3358 15.5 10.75V15.75C15.5 16.1642 15.1642 16.5 14.75 16.5C14.3358 16.5 14 16.1642 14 15.75V10.75C14 10.3358 14.3358 10 14.75 10Z" fill="white"/>
<path fill-rule="evenodd" clip-rule="evenodd" d="M6.75 10C7.16421 10 7.5 10.3358 7.5 10.75V15.75C7.5 16.1642 7.16421 16.5 6.75 16.5C6.33579 16.5 6 16.1642 6 15.75V10.75C6 10.3358 6.33579 10 6.75 10Z" fill="white"/>
<path fill-rule="evenodd" clip-rule="evenodd" d="M6 3.75C6 1.67893 7.67893 0 9.75 0H11.75C13.8211 0 15.5 1.67893 15.5 3.75V7.5H6V3.75ZM9.75 1.5C8.50736 1.5 7.5 2.50736 7.5 3.75V6H14V3.75C14 2.50736 12.9926 1.5 11.75 1.5H9.75Z" fill="white"/>
<path fill-rule="evenodd" clip-rule="evenodd" d="M0 10.75C0 8.12665 2.12665 6 4.75 6H16.75C19.3734 6 21.5 8.12665 21.5 10.75V15.75C21.5 18.3734 19.3734 20.5 16.75 20.5H4.75C2.12665 20.5 0 18.3734 0 15.75V10.75ZM4.75 7.5C2.95507 7.5 1.5 8.95507 1.5 10.75V15.75C1.5 17.5449 2.95507 19 4.75 19H16.75C18.5449 19 20 17.5449 20 15.75V10.75C20 8.95507 18.5449 7.5 16.75 7.5H4.75Z" fill="white"/>
</svg>
