<svg width="24" height="24" viewBox="0 0 24 24" fill="none" xmlns="http://www.w3.org/2000/svg">
<g clip-path="url(#clip0_5262_28054)">
<path fill-rule="evenodd" clip-rule="evenodd" d="M6.4184 5.13951C5.64777 5.13951 5.02305 5.76423 5.02305 6.53486C5.02305 7.30549 5.64777 7.9302 6.4184 7.9302C7.18903 7.9302 7.81375 7.30549 7.81375 6.53486C7.81375 5.76423 7.18903 5.13951 6.4184 5.13951ZM3.34863 6.53486C3.34863 4.83947 4.72301 3.46509 6.4184 3.46509C8.11379 3.46509 9.48817 4.83947 9.48817 6.53486C9.48817 8.23024 8.11379 9.60462 6.4184 9.60462C4.72301 9.60462 3.34863 8.23024 3.34863 6.53486Z" fill="white"/>
<path fill-rule="evenodd" clip-rule="evenodd" d="M1.27406 13.7201C2.26649 12.3417 3.91318 11.2791 6.4186 11.2791C8.92403 11.2791 10.5707 12.3417 11.5631 13.7201C12.5248 15.0558 12.8372 16.6335 12.8372 17.6977C12.8372 18.16 12.4624 18.5349 12 18.5349H0.837209C0.374831 18.5349 0 18.16 0 17.6977C0 16.6335 0.312375 15.0558 1.27406 13.7201ZM1.75109 16.8604H11.0861C10.9667 16.1741 10.6971 15.383 10.2043 14.6985C9.5223 13.7513 8.3783 12.9535 6.4186 12.9535C4.45891 12.9535 3.31491 13.7513 2.63291 14.6985C2.14008 15.383 1.87051 16.1741 1.75109 16.8604Z" fill="white"/>
<path fill-rule="evenodd" clip-rule="evenodd" d="M16.4653 5.13951C15.6946 5.13951 15.0699 5.76423 15.0699 6.53486C15.0699 7.30549 15.6946 7.9302 16.4653 7.9302C17.2359 7.9302 17.8606 7.30549 17.8606 6.53486C17.8606 5.76423 17.2359 5.13951 16.4653 5.13951ZM13.3955 6.53486C13.3955 4.83947 14.7699 3.46509 16.4653 3.46509C18.1607 3.46509 19.535 4.83947 19.535 6.53486C19.535 8.23024 18.1607 9.60462 16.4653 9.60462C14.7699 9.60462 13.3955 8.23024 13.3955 6.53486Z" fill="white"/>
<path fill-rule="evenodd" clip-rule="evenodd" d="M14.5566 11.3425C14.9168 11.2965 15.3661 11.2791 15.908 11.2791C18.563 11.2791 20.5814 12.3028 21.9349 13.6062C23.2539 14.8764 24.0001 16.4762 24.0001 17.6977C24.0001 18.16 23.6253 18.5349 23.1629 18.5349H15.2812C14.8189 18.5349 14.444 18.16 14.444 17.6977C14.444 16.0375 13.9041 14.9405 13.4815 14.0819C13.3935 13.9032 13.3106 13.7348 13.2388 13.5738C13.143 13.3593 13.0186 13.0539 13.0081 12.7323C13.0022 12.5531 13.0301 12.3464 13.1314 12.1411C13.2337 11.9338 13.3856 11.7788 13.5505 11.6671C13.849 11.4651 14.2202 11.3855 14.5566 11.3425ZM16.0784 16.8604C15.9195 15.2113 15.3241 14.0179 14.9589 13.2861C14.9061 13.1803 14.8581 13.0841 14.8169 12.9976C15.0687 12.9688 15.4209 12.9535 15.908 12.9535C18.103 12.9535 19.7121 13.7902 20.7735 14.8123C21.4886 15.501 21.9314 16.2474 22.1527 16.8604H16.0784Z" fill="white"/>
</g>
<defs>
<clipPath id="clip0_5262_28054">
<rect width="24" height="24" fill="white"/>
</clipPath>
</defs>
</svg>
