<svg width="24" height="24" viewBox="0 0 24 24" fill="none" xmlns="http://www.w3.org/2000/svg">
<path d="M6 22.5C3.525 22.5 1.5 20.475 1.5 18V7.5C1.5 5.025 3.525 3 6 3H12.75C13.2 3 13.5 3.3 13.5 3.75C13.5 4.2 13.2 4.5 12.75 4.5H6C4.35 4.5 3 5.85 3 7.5V18C3 19.65 4.35 21 6 21H16.5C18.15 21 19.5 19.65 19.5 18V10.5C19.5 10.05 19.8 9.75 20.25 9.75C20.7 9.75 21 10.05 21 10.5V18C21 20.475 18.975 22.5 16.5 22.5H6ZM18.75 0.75C20.85 0.75 22.5 2.4 22.5 4.5C22.5 6.6 20.85 8.25 18.75 8.25C16.65 8.25 15 6.6 15 4.5C15 2.4 16.65 0.75 18.75 0.75Z" fill="white"/>
</svg>
