<svg width="24" height="24" viewBox="0 0 24 24" fill="none" xmlns="http://www.w3.org/2000/svg">
<path fill-rule="evenodd" clip-rule="evenodd" d="M21.6141 4.91279C22.1677 4.71509 22.75 5.12546 22.75 5.71327V16.9381C22.75 17.2601 22.5681 17.5544 22.2801 17.6984L12.4801 22.5984C11.915 22.881 11.25 22.47 11.25 21.8381V9.21327C11.25 8.85405 11.4758 8.53361 11.8141 8.41279L21.6141 4.91279ZM21.25 6.63562L12.75 9.67134V20.7864L21.25 16.5364V6.63562Z" fill="white"/>
<path fill-rule="evenodd" clip-rule="evenodd" d="M1.25 5.71327C1.25 5.12547 1.83232 4.71509 2.38589 4.91279L12.1859 8.41279C12.5242 8.53361 12.75 8.85404 12.75 9.21327V21.8381C12.75 22.47 12.085 22.881 11.5199 22.5984L1.71987 17.6984C1.4319 17.5544 1.25 17.2601 1.25 16.9381V5.71327ZM2.75 6.63562V16.5364L11.25 20.7864V9.67134L2.75 6.63562Z" fill="white"/>
<path fill-rule="evenodd" clip-rule="evenodd" d="M11.9999 2.79631L4.22985 5.57135L11.9999 8.34638L19.77 5.57135L11.9999 2.79631ZM11.7141 1.30562C11.8989 1.2396 12.101 1.2396 12.2858 1.30562L21.9885 4.77087C22.7407 5.03949 22.7407 6.1032 21.9885 6.37183L12.2858 9.83707C12.101 9.90309 11.8989 9.9031 11.7141 9.83707L2.01138 6.37183C1.25922 6.1032 1.25923 5.03949 2.01138 4.77087L11.7141 1.30562Z" fill="white"/>
</svg>
