<svg width="24" height="24" viewBox="0 0 24 24" fill="none" xmlns="http://www.w3.org/2000/svg">
<path fill-rule="evenodd" clip-rule="evenodd" d="M10.4006 2.75392C11.0162 1.36751 12.9838 1.36751 13.5994 2.75392L14.6569 5.13549C14.711 5.25721 14.8509 5.31519 14.9752 5.26734L17.407 4.33108C18.8226 3.78604 20.2139 5.17735 19.6689 6.59299L18.7327 9.02477C18.6848 9.14906 18.7428 9.28904 18.8645 9.34308L21.2461 10.4006C22.6325 11.0162 22.6325 12.9838 21.2461 13.5994L18.8645 14.6569C18.7428 14.711 18.6848 14.8509 18.7327 14.9752L19.6689 17.407C20.214 18.8226 18.8226 20.2139 17.407 19.6689L14.9752 18.7327C14.8509 18.6848 14.711 18.7428 14.6569 18.8645L13.5994 21.2461C12.9838 22.6325 11.0162 22.6325 10.4006 21.2461L9.34308 18.8645C9.28904 18.7428 9.14906 18.6848 9.02477 18.7327L6.59299 19.6689C5.17734 20.214 3.78604 18.8226 4.33108 17.407L5.26734 14.9752C5.31519 14.8509 5.25721 14.711 5.13549 14.6569L2.75392 13.5994C1.36751 12.9838 1.36751 11.0162 2.75392 10.4006L5.13549 9.34308C5.25721 9.28904 5.31519 9.14906 5.26734 9.02477L4.33108 6.59299C3.78604 5.17735 5.17734 3.78604 6.59299 4.33108L9.02477 5.26734C9.14906 5.31519 9.28904 5.25721 9.34308 5.13549L10.4006 2.75392ZM12.2285 3.36266C12.1405 3.1646 11.8595 3.1646 11.7715 3.36265L10.714 5.74422C10.3357 6.59626 9.35582 7.00213 8.48582 6.66717L6.05404 5.73091C5.85181 5.65305 5.65305 5.8518 5.73091 6.05404L6.66717 8.48582C7.00213 9.35582 6.59626 10.3357 5.74422 10.714L3.36266 11.7715C3.1646 11.8595 3.1646 12.1405 3.36265 12.2285L5.74422 13.286C6.59626 13.6643 7.00213 14.6442 6.66717 15.5142L5.73091 17.9459C5.65305 18.1482 5.85181 18.3469 6.05404 18.2691L8.48582 17.3328C9.35582 16.9979 10.3357 17.4037 10.714 18.2558L11.7715 20.6373C11.8595 20.8354 12.1405 20.8354 12.2285 20.6373L13.286 18.2558C13.6643 17.4037 14.6442 16.9979 15.5142 17.3328L17.9459 18.2691C18.1482 18.3469 18.3469 18.1482 18.2691 17.946L17.3328 15.5142C16.9979 14.6442 17.4037 13.6643 18.2558 13.286L20.6373 12.2285C20.8354 12.1405 20.8354 11.8595 20.6373 11.7715L18.2558 10.714C17.4037 10.3357 16.9979 9.35583 17.3328 8.48582L18.2691 6.05404C18.3469 5.8518 18.1482 5.65305 17.946 5.73091L15.5142 6.66717C14.6442 7.00213 13.6643 6.59626 13.286 5.74422L12.2285 3.36266Z" fill="#80C0EF"/>
<path fill-rule="evenodd" clip-rule="evenodd" d="M12 10C10.8954 10 10 10.8954 10 12C10 13.1046 10.8954 14 12 14C13.1046 14 14 13.1046 14 12C14 10.8954 13.1046 10 12 10ZM8.5 12C8.5 10.067 10.067 8.5 12 8.5C13.933 8.5 15.5 10.067 15.5 12C15.5 13.933 13.933 15.5 12 15.5C10.067 15.5 8.5 13.933 8.5 12Z" fill="#80C0EF"/>
</svg>
