<svg width="24" height="24" viewBox="0 0 24 24" fill="none" xmlns="http://www.w3.org/2000/svg">
<path fill-rule="evenodd" clip-rule="evenodd" d="M5.25 5.6C5.25 3.19756 7.19756 1.25 9.6 1.25H17C20.1756 1.25 22.75 3.82436 22.75 7V9.1579C22.75 11.1418 21.1418 12.75 19.1579 12.75C18.6596 12.75 18.2697 12.3553 18.2459 11.8808C18.2333 11.6303 18.1837 11.05 17.9943 10.3938C17.8034 9.73271 17.4854 9.04607 16.9697 8.53033C15.5016 7.06227 13.2612 6.75 10.8686 6.75H6.4C5.76487 6.75 5.25 6.23513 5.25 5.6ZM6.77128 5.25H10.8686C13.2864 5.25 16.0969 5.53626 18.0303 7.46967C18.7896 8.22898 19.2048 9.17869 19.4354 9.97778C19.5652 10.4273 19.6413 10.8455 19.686 11.1828C20.5857 10.9488 21.25 10.1309 21.25 9.1579V7C21.25 4.65279 19.3472 2.75 17 2.75H9.6C8.14448 2.75 6.94381 3.8411 6.77128 5.25Z" fill="white"/>
<path fill-rule="evenodd" clip-rule="evenodd" d="M1.25 12.0714C1.25 8.30406 4.30406 5.25 8.07143 5.25H12.9286C16.6959 5.25 19.75 8.30406 19.75 12.0714C19.75 15.8388 16.6959 18.8929 12.9286 18.8929H12.0249L8.66391 22.2539C7.76746 23.1503 6.25987 22.2968 6.56735 21.0668L7.11579 18.8731C3.83333 18.6154 1.25 15.8701 1.25 12.5214V12.0714ZM8.07143 6.75C5.13248 6.75 2.75 9.13249 2.75 12.0714V12.5214C2.75 15.2118 4.93102 17.3929 7.62144 17.3929C8.33794 17.3929 8.86367 18.0662 8.6899 18.7613L8.24147 20.555L11.054 17.7425C11.2778 17.5186 11.5815 17.3929 11.8981 17.3929H12.9286C15.8675 17.3929 18.25 15.0104 18.25 12.0714C18.25 9.13249 15.8675 6.75 12.9286 6.75H8.07143Z" fill="white"/>
</svg>
