<svg width="24" height="20" viewBox="0 0 24 20" fill="none" xmlns="http://www.w3.org/2000/svg">
<path d="M19.5 0.5H4.5C2.025 0.5 0 2.525 0 5V15.5C0 17.975 2.025 20 4.5 20H19.5C21.975 20 24 17.975 24 15.5V5C24 2.525 21.975 0.5 19.5 0.5ZM22.5 15.5C22.5 17.15 21.15 18.5 19.5 18.5H4.5C2.85 18.5 1.5 17.15 1.5 15.5V5C1.5 3.35 2.85 2 4.5 2H19.5C21.15 2 22.5 3.35 22.5 5V15.5ZM19.5 5.75C19.5 6.2 19.2 6.5 18.75 6.5H9.75C9.3 6.5 9 6.2 9 5.75C9 5.3 9.3 5 9.75 5H18.75C19.2 5 19.5 5.3 19.5 5.75ZM9 10.25C9 9.8 9.3 9.5 9.75 9.5H14.25C14.7 9.5 15 9.8 15 10.25C15 10.7 14.7 11 14.25 11H9.75C9.3 11 9 10.7 9 10.25ZM18 14.75C18 15.2 17.7 15.5 17.25 15.5H9.75C9.3 15.5 9 15.2 9 14.75C9 14.3 9.3 14 9.75 14H17.25C17.7 14 18 14.3 18 14.75ZM6.9 5.75C6.9 6.275 6.525 6.65 6 6.65C5.475 6.65 5.1 6.275 5.1 5.75C5.1 5.225 5.475 4.85 6 4.85C6.525 4.85 6.9 5.225 6.9 5.75ZM6.9 10.25C6.9 10.775 6.525 11.15 6 11.15C5.475 11.15 5.1 10.775 5.1 10.25C5.1 9.725 5.475 9.35 6 9.35C6.525 9.35 6.9 9.725 6.9 10.25ZM6.9 14.75C6.9 15.275 6.525 15.65 6 15.65C5.475 15.65 5.1 15.275 5.1 14.75C5.1 14.225 5.475 13.85 6 13.85C6.525 13.85 6.9 14.225 6.9 14.75Z" fill="white"/>
</svg>
