<svg width="24" height="24" viewBox="0 0 24 24" fill="none" xmlns="http://www.w3.org/2000/svg">
<path d="M12.0012 21C16.0053 21 19.2512 17.7541 19.2512 13.75C19.2512 9.74594 16.0053 6.5 12.0012 6.5C7.99716 6.5 4.75122 9.74594 4.75122 13.75C4.75122 17.7541 7.99716 21 12.0012 21Z" stroke="#7A91A9" stroke-width="1.5" stroke-miterlimit="10"/>
<path d="M12.0012 13.75L11.992 8.24878C11.9966 8.24878 11.9966 8.24878 12.0012 8.24878C15.0177 8.24878 17.5024 10.7335 17.5024 13.75C17.5024 16.7665 15.0177 19.2512 12.0012 19.2512C8.98471 19.2512 6.50458 16.7711 6.5 13.7591L12.0012 13.75Z" fill="#7A91A9"/>
<path d="M8.00122 3.5H16.0012" stroke="#7A91A9" stroke-width="1.5" stroke-miterlimit="10"/>
<path d="M12.7512 3.5H11.2512V7H12.7512V3.5Z" fill="#7A91A9"/>
<path d="M5.06065 7.7499L4 8.81055L5.59097 10.4015L6.65162 9.34087L5.06065 7.7499Z" fill="#7A91A9"/>
<path d="M20.0011 8.91002L18.9404 7.84937L17.3495 9.44034L18.4101 10.501L20.0011 8.91002Z" fill="#7A91A9"/>
</svg>
